<?xml version="1.0" encoding="utf-8"?>
<!-- Generator: Adobe Illustrator 15.0.0, SVG Export Plug-In . SVG Version: 6.00 Build 0)  -->
<!DOCTYPE svg PUBLIC "-//W3C//DTD SVG 1.1//EN" "http://www.w3.org/Graphics/SVG/1.1/DTD/svg11.dtd">
<svg version="1.1" id="Capa_1" xmlns="http://www.w3.org/2000/svg" xmlns:xlink="http://www.w3.org/1999/xlink" x="0px" y="0px"
	 width="459.769px" height="266.652px" viewBox="0 0 459.769 266.652" enable-background="new 0 0 459.769 266.652"
	 xml:space="preserve">
<path fill="#FFFFFF" d="M309.148,184.034c2.623-0.318,3.935-0.475,6.558-0.779c-1.319-5.37-1.979-8.041-3.299-13.357
	C311.104,175.575,310.452,178.403,309.148,184.034 M312.87,178.446c0.085,0.334,0.088,0.699,0.007,1.055
	c-0.209,0.92-0.316,1.379-0.525,2.299c-0.408,0.048-0.612,0.072-1.021,0.119c0.458-2,0.687-3.002,1.146-5.008
	C312.635,177.526,312.713,177.831,312.87,178.446"/>
<path fill="#FFFFFF" d="M143.132,217.167c2.621-0.727,3.933-1.086,6.556-1.797c-1.304-5.135-1.955-7.715-3.258-12.896
	C145.11,208.323,144.45,211.262,143.132,217.167 M146.839,210.995c0.085,0.324,0.086,0.688,0.003,1.058
	c-0.212,0.952-0.319,1.429-0.531,2.382c-0.408,0.109-0.612,0.164-1.02,0.271c0.463-2.08,0.695-3.119,1.158-5.194
	C146.605,210.106,146.683,210.403,146.839,210.995"/>
<path fill="#FFFFFF" d="M343.512,132.294c-78.278,13.146-131.818,23.443-228.117,44.422c-2.315,0.504-3.973,2.555-3.973,4.924
	v69.074c0,3.43,3.359,5.857,6.617,4.782c81.368-26.853,142.326-39.165,226.594-44.056c2.668-0.154,4.758-2.356,4.758-5.029v-69.148
	C349.391,134.146,346.586,131.778,343.512,132.294 M323.961,146.054c-1.424,2.073-1.897,4.262-1.345,6.52
	c3.161,12.906,7.011,26.256,10.093,39.361c0.603,2.563,1.645,7.234,1.645,7.234c-1.109-1.131-1.921-3.996-2.598-6.871
	c-3.084-13.081-6.933-26.406-10.094-39.288c-0.727-2.964,0.092-5.89,2.299-8.558C324.325,144.845,324.316,145.534,323.961,146.054
	 M279.709,152.21c0.686,0.105,0.69,1.064,0.08,1.753c-0.484,0.545-0.826,1.294-1.06,2.095c-0.302,1.026-0.422,2.141-0.421,3.03
	c0.018,11.897,0.033,23.797,0.052,35.694c-0.396,0.059-0.594,0.088-0.989,0.146c-0.018-11.889-0.035-23.779-0.052-35.666
	c-0.002-1.891,0.472-4.451,1.812-5.977C279.401,152.978,279.602,152.606,279.709,152.21 M259.892,157.958
	c-0.763,1.135-1.146,2.689-1.144,4.641c0.012,13.803,0.025,27.605,0.039,41.407c0.002,1.565,0.069,4.577,0.069,4.577
	c-0.765-1.203-1.058-2.961-1.06-4.414c-0.012-13.796-0.026-27.592-0.039-41.389c-0.002-2.762,0.72-4.877,2.146-6.291
	C260.215,156.868,260.217,157.474,259.892,157.958 M220.304,165.044c-0.798,1.104-1.772,2.914-1.775,5.143
	c-0.018,11.492-0.025,23.066-0.125,34.516c-0.002,0.221-0.017,2.593-0.017,2.593c-0.801-0.565-1.027-1.675-1.018-2.392
	c0.144-11.401,0.108-23.02,0.126-34.51c0.005-3.408,1.973-5.957,2.82-6.891C220.676,163.877,220.674,164.532,220.304,165.044
	 M199.373,170.472c0,0,1.234,1.422,1.232,3.463c-0.004,3.709-0.005,5.563-0.009,9.271c-0.003,2.683-0.818,3.907-1.895,4.196
	c-0.378,0.103-0.758-0.117-0.901-0.5c0.755-0.457,1.759-1.313,1.761-3.476c0.004-3.71,0.006-5.565,0.01-9.274
	C199.572,172.179,199.375,170.487,199.373,170.472 M158.022,177.921c-1.43,2.102-1.909,4.277-1.362,6.438
	c3.034,11.984,6.867,24.375,10.002,36.506c0.598,2.316,1.632,6.518,1.632,6.518c-1.11-0.836-1.917-3.387-2.59-5.992
	c-3.133-12.14-6.965-24.537-9.999-36.531c-0.719-2.842,0.107-5.779,2.323-8.492C158.392,176.728,158.38,177.396,158.022,177.921
	 M141.357,242.711c-6.147,1.944-9.219,2.948-15.356,5.021c-0.544,0.183-0.984-0.181-0.984-0.813c6.531-2.2,9.8-3.265,16.342-5.323
	c1.333-0.419,2.366-2.201,2.413-3.199C144.83,238.399,144.042,241.862,141.357,242.711 M142.861,236.099
	c-1.029-1.092-1.543-3.234-1.169-4.867c0.17-0.77,0.255-1.154,0.425-1.92c3.469-1.027,5.204-1.531,8.676-2.523
	c0.098,0.412,0.147,0.619,0.245,1.031c-3.267,0.937-4.899,1.414-8.164,2.381c-0.092,0.416-0.138,0.623-0.23,1.039
	C142.125,233.505,142.654,235.713,142.861,236.099 M150.668,235.663c1.747-2.25,2.698-5.945,2.108-8.17
	c-0.306-1.196-0.459-1.795-0.766-2.995c-4.494,1.267-6.74,1.913-11.229,3.235c-0.31,1.397-0.465,2.097-0.774,3.498
	c-0.596,2.615,0.343,5.822,2.083,7.035c0.323,0.225-0.31,1.299-0.667,1.409c-0.114,0.036-17.041,5.519-17.155,5.556
	c-0.356,0.119-0.767-0.646-0.363-1.115c2.176-2.528,3.459-5.475,4.247-8.967c3.527-15.481,7.12-30.949,10.776-46.4
	c0.73-2.723-0.343-6.715-2.085-8.092c-0.324-0.254,0.311-1.28,0.668-1.359c0.114-0.025,17.796-3.896,17.91-3.921
	c0.359-0.078,0.99,0.646,0.666,1.034c-1.748,2.1-2.834,6.508-2.11,8.838c3.531,13.076,7.09,26.143,10.678,39.203
	c0.782,2.867,2.063,4.914,4.245,6.007c0.405,0.202-0.01,1.165-0.368,1.263c-0.115,0.032-17.085,4.896-17.199,4.93
	C150.976,236.759,150.344,236.081,150.668,235.663 M171,232.634c-0.51,0.945-1.406,1.691-2.402,1.969
	c-6.262,1.748-9.391,2.654-15.645,4.533c-0.545,0.164-0.986-0.195-0.985-0.802c6.648-1.997,9.975-2.959,16.632-4.81
	c1.323-0.367,2.124-1.985,2.171-2.963C171.35,230.435,171.375,231.938,171,232.634 M167.324,207.722
	c0.013-4.783,0.02-7.176,0.033-11.959c-0.449-13.023,6.719-25.773,20.065-28.484c4.496-0.912,8.661,0.711,9.941,2.592
	c0.49,0.722,0.605,3.037,0.559,5.656c-0.074,4.213-0.058,8.551-0.058,8.945c-0.001,0.643-1.086,1.355-1.23,0.836
	s-2.492-9.135-9.052-7.729c-3.939,0.844-8.398,6.783-8.412,15.824c-0.026,5.022-0.04,7.535-0.066,12.56
	c-0.012,7.981,3.716,14.205,9.364,10.472c0.007-5.16,0.011-7.74,0.018-12.902c0.003-2.471-0.652-5.211-2.397-6.477
	c-0.324-0.234,0.311-1.215,0.669-1.297c4.813-1.1,7.221-1.638,12.035-2.693c0.358-0.08,0.991,0.609,0.667,0.986
	c-0.978,1.139-1.244,3.697-1.247,6.332c-0.001-0.002-0.002-0.004-0.003-0.006c-0.009,6.186-0.013,9.277-0.022,15.464
	c0.007,2.188,0.16,3.666,0.651,4.578c0.138,0.256-0.198,1.206-0.398,1.235c-1.377,0.205-4.036,1.787-6.96,3.445
	c-2.681,1.521-5.585,3.108-7.93,3.713C173.586,231.378,167.298,224.038,167.324,207.722 M182.49,213.476
	c-1.543-2.34-1.719-6.849-1.726-7.039c0.007-5.033,0.011-7.551,0.018-12.584c0.006-4.541,0.864-8.227,2.547-10.941
	c1.405-2.264,3.096-3.324,4.209-3.564c2.281-0.49,3.432,0.539,3.499,0.627c-0.778-0.082-1.693,0.09-3.5,0.481
	c-1.587,0.343-5.707,3.383-5.721,13.159c-0.008,5.021-0.011,7.531-0.019,12.551C181.79,211.681,182.49,213.476,182.49,213.476
	 M201.531,195.254c-0.048,0.086-0.092,0.173-0.13,0.261c-0.303,0.684-0.554,1.658-0.556,3.006c-0.006,6.504-0.01,9.756-0.016,16.26
	c-0.015,1.556,0.098,3.422,0.305,3.738c0.572,0.865,0.469,2.657-0.22,3.834c-0.463,0.791-1.039,1.773-2.969,2.232
	c-0.983,0.234-2.894,1.324-4.917,2.494c-3.022,1.744-6.447,3.756-9.198,4.47c-3.282,0.851-5.668-0.501-5.668-0.501
	c0.016,0.006,1.652,0.477,5.669-0.563c2.601-0.67,5.949-2.637,8.903-4.342c2.188-1.264,4.078-2.342,5.212-2.611
	c1.422-0.338,1.75-0.896,2.164-1.604c0.451-0.773,0.541-2.119,0.178-2.669c-0.449-0.679-0.458-3.429-0.449-4.256
	c0.006-6.505,0.01-9.758,0.016-16.265c0.004-2.797,1.002-4.323,1.597-4.983C201.792,194.112,201.824,194.722,201.531,195.254
	 M203.884,207.713c0.011-11.472,0.022-22.942,0.032-34.413c0.002-2.447-0.654-5.178-2.398-6.473
	c-0.324-0.238,0.31-1.194,0.668-1.268c6.153-1.25,9.23-1.869,15.383-3.096c0.358-0.07,0.991,0.624,0.667,0.993
	c-1.742,1.981-2.403,4.956-2.408,7.388c-0.006,11.488-0.012,22.977-0.018,34.465c-0.002,3.055,1.956,4.404,4.583,3.861
	c2.973-0.615,4.586-2.895,4.587-5.751c0.003-11.536,0.004-23.071,0.007-34.608c-0.039-2.373-0.703-4.967-2.396-6.22
	c-0.324-0.239,0.309-1.185,0.667-1.256c6.164-1.218,9.246-1.819,15.408-3.011c0.358-0.069,0.992,0.629,0.668,0.994
	c-1.746,1.977-2.404,4.953-2.402,7.386c0.003,11.399,0.006,22.802,0.008,34.202c0.002,8.734-6.54,17.365-16.55,19.455
	C210.912,222.342,203.876,216.722,203.884,207.713 M240.602,161.938c-0.68,1.266-0.934,2.982-0.932,4.24
	c0.002,11.404,0.006,22.811,0.01,34.215c0.004,9.635-6.502,18.36-15.643,21.791c-5.732,2.15-10.412,0.234-10.412,0.234
	c2.136,0.354,4.413,0.279,6.764-0.212c10.438-2.183,18.305-11.353,18.302-21.63c-0.004-11.402-0.007-22.807-0.011-34.209
	c0-1.855,0.477-4.377,1.818-5.895C240.846,160.819,240.881,161.415,240.602,161.938 M241.53,213.911
	c1.75-1.955,2.408-4.924,2.407-7.36c-0.008-13.728-0.014-27.454-0.021-41.183c0-2.436-0.66-5.163-2.408-6.467
	c-0.323-0.24,0.31-1.185,0.668-1.252c6.226-1.197,9.338-1.789,15.563-2.959c0.358-0.068,0.993,0.639,0.669,1.006
	c-1.744,1.975-2.4,4.961-2.398,7.406c0.013,13.785,0.025,27.57,0.037,41.354c0.002,2.444,0.664,5.198,2.416,6.567
	c0.324,0.254-0.31,1.181-0.668,1.238c-0.115,0.018-15.48,2.633-15.594,2.654C241.842,214.981,241.207,214.274,241.53,213.911
	 M259.92,213.968c-0.621,0.65-1.367,1.078-2.123,1.198c-5.518,0.875-8.277,1.339-13.797,2.317c-0.547,0.097-0.992-0.291-0.992-0.867
	c5.916-1.059,8.875-1.559,14.789-2.5c0.761-0.12,1.522-0.713,2.039-1.59C260.301,212.795,260.352,213.515,259.92,213.968
	 M261.166,210.599c1.748-1.926,2.403-4.902,2.401-7.357c-0.017-13.838-0.03-27.676-0.047-41.514
	c-0.002-2.455-0.664-5.211-2.412-6.535c-0.323-0.248,0.308-1.191,0.666-1.258c6.21-1.162,9.315-1.734,15.522-2.867
	c0.359-0.065,0.994,0.656,0.67,1.023c-1.744,1.986-2.398,5.003-2.395,7.479c0.018,12.449,0.035,24.898,0.053,37.348
	c2.281-0.336,3.422-0.499,5.703-0.82c6.254-1.248,8.827-3.882,9.067-4.115c0.347-0.338,0.993,0.436,0.923,0.832
	c-0.227,1.267-3.307,11.799-3.684,13.123c-0.359,1.264-1.381,2.269-2.576,2.42c-9.283,1.166-13.928,1.82-23.223,3.271
	C261.477,211.683,260.842,210.954,261.166,210.599 M288.106,209.905c-0.884,0.785-1.931,1.275-3.04,1.41
	c-6.361,0.783-9.546,1.209-15.913,2.129c-0.019,0.004-0.038,0.008-0.056,0.012c-1.209,0.174-1.811,0.263-3.02,0.441
	c-1.006,0.149-1.509,0.225-2.515,0.375c-0.547,0.084-0.99-0.32-0.991-0.9c2.586-0.396,3.879-0.59,6.465-0.963
	c0.02-0.006,0.037-0.01,0.057-0.012c6.391-0.93,9.584-1.359,15.97-2.151c1.204-0.149,2.321-0.812,3.147-1.873
	C288.631,208.748,288.574,209.489,288.106,209.905 M291.019,200.338c0.797-2.923,1.196-4.388,1.993-7.321
	c0.521,0.108,0.816,0.67,0.658,1.262c-0.438,1.621-1.269,4.685-1.711,6.275c-0.619,2.227-2.238,4.109-2.238,4.109
	C290.239,202.935,290.5,202.069,291.019,200.338 M307.475,208.872c-6.155,0.563-9.235,0.876-15.396,1.568
	c-0.548,0.061-0.99-0.371-0.992-0.965c6.56-0.752,9.836-1.093,16.387-1.699c1.335-0.125,2.365-1.662,2.408-2.641
	C310.939,205.362,310.162,208.627,307.475,208.872 M308.963,202.677c-1.035-1.287-1.557-3.488-1.187-5.025
	c0.169-0.725,0.252-1.086,0.421-1.813c3.473-0.372,5.207-0.55,8.676-0.889c0.1,0.435,0.149,0.652,0.25,1.089
	c-3.266,0.312-4.898,0.476-8.166,0.819c-0.091,0.392-0.137,0.588-0.228,0.98C308.217,199.976,308.754,202.254,308.963,202.677
	 M316.748,203.883c1.739-1.892,2.68-5.459,2.084-7.831c-0.311-1.275-0.466-1.912-0.775-3.184c-4.49,0.443-6.736,0.681-11.23,1.182
	c-0.307,1.316-0.46,1.975-0.767,3.288c-0.591,2.45,0.362,5.763,2.108,7.319c0.324,0.289-0.307,1.214-0.664,1.248
	c-0.115,0.011-17.088,1.83-17.203,1.843c-0.357,0.042-0.772-0.753-0.367-1.116c2.182-1.949,3.463-4.492,4.246-7.66
	c3.597-14.423,7.158-28.854,10.678-43.295c0.725-2.607-0.361-6.578-2.109-7.986c-0.324-0.264,0.307-1.231,0.664-1.295
	c0.114-0.02,17.797-3.074,17.912-3.094c0.357-0.061,0.991,0.715,0.667,1.096c-1.741,2.053-2.813,6.453-2.084,8.881
	c3.661,13.99,7.257,28,10.781,42.025c0.789,3.172,2.071,5.604,4.249,7.268c0.404,0.31-0.008,1.234-0.364,1.256
	c-0.114,0.007-17.044,1.191-17.157,1.199C317.059,205.056,316.424,204.235,316.748,203.883 M337.063,205.381
	c-0.506,0.888-1.396,1.462-2.389,1.517c-6.235,0.336-9.356,0.537-15.603,1.008c-0.545,0.041-0.987-0.422-0.987-1.037
	c6.641-0.521,9.961-0.744,16.59-1.114c1.317-0.073,2.111-1.606,2.156-2.642C337.405,203.114,337.436,204.728,337.063,205.381"/>
<path fill="#FFFFFF" d="M221.271,147.06l-2.43,0.474v1.036l2.438-0.475c0.405-0.08,0.652-0.353,0.652-0.674
	C221.93,147.126,221.69,146.979,221.271,147.06"/>
<polygon fill="#FFFFFF" points="256.545,141.763 258.209,141.438 257.376,140.077 "/>
<path fill="#FFFFFF" d="M263.035,136.195c-0.66-0.892-1.748-1.309-3.061-1.053c-20.865,4.08-41.73,8.161-62.595,12.24
	c-1.313,0.257-2.401,1.102-3.061,2.252c-2.304,3.891-3.62,6.119-5.645,9.559l80.089-15.55
	C266.689,140.937,265.371,139.222,263.035,136.195 M201.624,153.538c0.758-0.147,1.388-0.549,1.92-1.223l1.118,0.36
	c-0.705,1.022-1.703,1.646-3.038,1.905c-0.96,0.187-1.807,0.066-2.4-0.283c-0.548-0.328-0.833-0.85-0.833-1.533
	c0-0.676,0.285-1.301,0.84-1.846c0.593-0.58,1.448-1.031,2.393-1.215c1.298-0.254,2.303,0.022,3.098,0.844l-1.2,0.646
	c-0.541-0.435-1.178-0.588-1.883-0.451c-1.208,0.235-1.935,0.933-1.935,1.766C199.704,153.327,200.454,153.766,201.624,153.538
	 M213.619,152.122l-5.19,1.013v-4.615l5.01-0.976v1.041l-3.69,0.721v0.751l2.505-0.489v1.043l-2.505,0.488v0.736l3.87-0.754V152.122
	z M221.946,150.501l-1.088-1.281l-2.018,0.393v1.493l-1.32,0.257v-4.613l3.879-0.756c1.109-0.217,1.837,0.279,1.837,1.195
	c0,0.682-0.33,1.227-0.968,1.598l1.178,1.422L221.946,150.501z M230.453,148.843l-1.163,0.227l-2.843-4.06l1.485-0.29l1.936,2.775
	l1.943-3.531l1.484-0.289L230.453,148.843z M241.816,146.628l-5.189,1.012v-4.613l5.011-0.977v1.043l-3.69,0.718v0.751l2.506-0.488
	v1.043l-2.506,0.487v0.735l3.869-0.754V146.628z M251.09,144.821l-5.559,1.084v-1.043l3.623-3.211v-0.023l-3.57,0.695v-1.043
	l5.332-1.039v1.043l-3.614,3.211v0.021l3.788-0.738V144.821z M259.326,143.216l-0.533-0.848l-2.834,0.553l-0.533,1.056l-1.357,0.265
	l2.557-5.113l1.502-0.293l2.558,4.117L259.326,143.216z"/>
<path fill="#FFFFFF" d="M32.066,76.39l2.205-17.994h4.799L36.865,76.39h9.209l2.206-17.994h6.733v-8.783h-5.65l0.89-7.313h6.656
	v-8.823h-5.572l2.089-16.832h-9.17l-2.129,16.832h-4.798l2.09-16.832h-9.132l-2.051,16.832h-6.849V42.3h5.727l-0.89,7.313h-6.888
	v8.783h5.805L22.935,76.39H32.066z M36.246,42.3h4.798l-0.851,7.313h-4.837L36.246,42.3z"/>
<path fill="#FFFFFF" d="M87.326,55.224c0,2.683-0.297,4.553-0.89,5.611c-0.594,1.006-1.664,1.509-3.211,1.509
	c-1.497,0-2.561-0.542-3.193-1.626c-0.632-1.083-0.948-2.927-0.948-5.533V16.646H62.947v39.971c0,7.661,2.374,13.233,7.12,16.716
	c3.74,2.735,8.371,4.102,13.892,4.102c4.875,0,9.015-1.239,12.421-3.715c2.527-1.857,4.333-3.935,5.417-6.23
	c1.109-2.193,1.664-5.056,1.664-8.59V16.646H87.326V55.224z"/>
<path fill="#FFFFFF" d="M124.049,61.144c0-2.347-0.077-5.082-0.232-8.203c-0.155-3.121-0.4-6.784-0.735-10.989
	c0.516,1.857,1.115,3.811,1.799,5.862c0.683,2.051,1.451,4.25,2.303,6.597l8.125,21.979h15.401V16.645h-15.401v13.427
	c0,2.503,0.155,5.598,0.465,9.287c0.309,3.689,0.76,8.126,1.354,13.311l-1.664-5.263c-0.671-2.089-1.283-3.933-1.838-5.533
	c-0.555-1.599-1.051-3.018-1.49-4.256l-8.087-20.973h-15.4V76.39h15.4V61.144z"/>
<rect x="155.897" y="16.646" fill="#FFFFFF" width="16.136" height="59.744"/>
<path fill="#FFFFFF" d="M211.118,69.502c4.927-5.391,7.39-13.04,7.39-22.946c0-10.06-2.915-17.889-8.745-23.487
	c-4.437-4.282-10.641-6.423-18.611-6.423h-13.931V76.39h15.091C200.644,76.39,206.913,74.094,211.118,69.502 M193.357,31.542h0.503
	c2.502,0,4.489,1.394,5.959,4.179c1.47,2.761,2.206,6.527,2.206,11.299c0,9.674-2.89,14.652-8.668,14.936V31.542z"/>
<path fill="#FFFFFF" d="M243.779,77.435c6.63,0,12.008-2.837,16.137-8.513c4.152-5.701,6.229-13.104,6.229-22.211
	c0-9.518-2.038-17.089-6.113-22.713c-4.076-5.624-9.559-8.436-16.445-8.436c-5.623,0-10.486,2.077-14.588,6.23
	c-5.521,5.598-8.281,13.685-8.281,24.262c0,11.041,2.644,19.321,7.933,24.842C232.854,75.254,237.897,77.435,243.779,77.435
	 M239.098,34.871c1.135-2.838,2.656-4.257,4.565-4.257c3.817,0,5.728,5.405,5.728,16.214c0,4.875-0.543,8.68-1.625,11.414
	c-1.032,2.735-2.504,4.102-4.412,4.102c-1.857,0-3.309-1.386-4.354-4.16c-1.044-2.772-1.566-6.675-1.566-11.705
	C237.434,41.372,237.988,37.501,239.098,34.871"/>
<path fill="#FFFFFF" d="M270.598,44.099c0.773,1.381,1.779,2.722,3.018,4.025c1.239,1.302,2.734,2.611,4.489,3.927l2.631,2.051
	c1.909,1.522,2.864,3.083,2.864,4.682c0,1.109-0.439,2.031-1.316,2.766c-0.877,0.736-2.012,1.103-3.404,1.103
	c-3.689,0-7.121-2.167-10.293-6.5v18.766c4.334,1.677,8.396,2.516,12.188,2.516c5.494,0,10.034-1.909,13.62-5.727
	s5.379-8.668,5.379-14.549c0-3.457-0.749-6.475-2.244-9.055c-1.471-2.579-3.908-5.094-7.314-7.545l-2.553-1.896
	c-2.192-1.574-3.289-3.16-3.289-4.76c0-0.98,0.412-1.818,1.237-2.515c0.8-0.722,1.819-1.083,3.058-1.083
	c1.625,0,3.275,0.587,4.953,1.76c1.676,1.174,3.172,2.78,4.488,4.818V18.619c-3.895-2.038-7.765-3.057-11.609-3.057
	c-4.308,0-7.983,1.29-11.026,3.87c-1.11,0.903-2.091,1.941-2.94,3.114c-0.853,1.175-1.601,2.471-2.246,3.889
	c-1.289,3.044-1.934,5.959-1.934,8.745c0,1.625,0.18,3.173,0.542,4.644C269.256,41.294,269.824,42.72,270.598,44.099"/>
<path fill="#FFFFFF" d="M325.386,56.81h2.515c6.037,0,10.666-1.199,13.893-3.599c4.72-3.559,7.08-8.963,7.08-16.213
	c0-6.655-2.219-11.853-6.655-15.594c-3.767-3.172-9.545-4.759-17.335-4.759H309.25v59.744h16.136V56.81z M325.386,29.685h1.122
	c1.754,0,3.199,0.658,4.334,1.975c1.135,1.29,1.701,2.966,1.701,5.03c0,2.089-0.579,3.734-1.739,4.934
	c-1.161,1.199-2.724,1.799-4.683,1.799l-0.735-0.039V29.685z"/>
<path fill="#FFFFFF" d="M372.906,77.435c6.629,0,12.008-2.837,16.135-8.513c4.154-5.701,6.23-13.104,6.23-22.211
	c0-9.518-2.039-17.089-6.113-22.713c-4.076-5.624-9.559-8.436-16.445-8.436c-5.624,0-10.487,2.077-14.588,6.23
	c-5.521,5.598-8.281,13.685-8.281,24.262c0,11.041,2.645,19.321,7.934,24.842C361.98,75.254,367.023,77.435,372.906,77.435
	 M368.224,34.871c1.136-2.838,2.657-4.257,4.565-4.257c3.818,0,5.728,5.405,5.728,16.214c0,4.875-0.542,8.68-1.625,11.414
	c-1.032,2.735-2.503,4.102-4.411,4.102c-1.857,0-3.309-1.386-4.354-4.16c-1.045-2.772-1.567-6.675-1.567-11.705
	C366.56,41.372,367.115,37.501,368.224,34.871"/>
<path fill="#FFFFFF" d="M415.047,55.495l-0.117-3.947c0.285,0.826,0.523,1.536,0.717,2.129c0.193,0.594,0.328,1.07,0.406,1.431
	l7.972,21.282h17.45l-11.995-24.842c6.166-2.759,9.249-7.751,9.249-14.974c0-6.759-2.297-11.97-6.889-15.633
	c-3.611-2.863-9.055-4.295-16.328-4.295h-16.523v59.744h16.059V55.495z M415.125,30.072h0.58c4.668,0,7.004,2.231,7.004,6.694
	c0,2.193-0.619,3.999-1.857,5.418s-2.786,2.128-4.645,2.128h-1.082V30.072z"/>
<polygon fill="#FFFFFF" points="44.546,82.696 28.41,82.696 28.41,142.439 56.658,142.439 56.658,128.084 44.546,128.084 "/>
<path fill="#FFFFFF" d="M71.055,82.696L56.699,142.44h16.678l1.315-7.584h10.873l1.2,7.584h16.677L90.789,82.696H71.055z
	 M76.859,122.048l1.625-9.364l1.122-7.236c0.026-0.129,0.078-0.503,0.155-1.122c0.078-0.619,0.206-1.728,0.387-3.328
	c0.103-0.799,0.2-1.534,0.29-2.205c0.09-0.671,0.161-1.277,0.213-1.819l0.503,5.649c0.129,1.161,0.232,2.123,0.31,2.883
	c0.077,0.761,0.141,1.361,0.193,1.8c0.49,3.921,0.761,6.165,0.813,6.732c0.077,0.671,0.129,1.02,0.154,1.045l1.045,6.965H76.859z"/>
<rect x="112.879" y="82.696" fill="#FFFFFF" width="16.136" height="59.744"/>
<path fill="#FFFFFF" d="M154.982,120.461h5.959c0,1.316-0.136,2.509-0.407,3.579c-0.27,1.071-0.645,1.98-1.122,2.728
	c-0.477,0.749-1.064,1.329-1.76,1.741c-0.697,0.413-1.471,0.619-2.322,0.619c-2.141,0-3.702-1.173-4.682-3.521
	c-0.981-2.347-1.47-6.114-1.47-11.298c0-12.202,2.218-18.303,6.655-18.303c1.264,0,2.315,0.549,3.154,1.644
	c0.838,1.097,1.373,2.587,1.606,4.47l15.632-5.727c-4.256-9.854-11.105-14.781-20.546-14.781c-7.12,0-12.731,2.786-16.833,8.358
	c-4.102,5.572-6.152,13.194-6.152,22.868c0,9.545,2.037,17.052,6.114,22.52c4.101,5.417,9.751,8.126,16.948,8.126
	c7.326,0,12.859-2.76,16.6-8.281c3.43-5.055,5.146-13.336,5.146-24.841v-2.477h-22.52V120.461z"/>
<path fill="#FFFFFF" d="M221.733,82.696h-16.136v38.578c0,2.683-0.296,4.554-0.89,5.611c-0.593,1.006-1.663,1.509-3.211,1.509
	c-1.497,0-2.56-0.542-3.193-1.625c-0.632-1.083-0.948-2.927-0.948-5.533v-38.54H181.22v39.971c0,7.662,2.373,13.234,7.119,16.715
	c3.741,2.736,8.371,4.104,13.892,4.104c4.876,0,9.016-1.238,12.421-3.716c2.528-1.856,4.334-3.933,5.417-6.23
	c1.109-2.192,1.664-5.055,1.664-8.59V82.696z"/>
<path fill="#FFFFFF" d="M236.865,82.696l-13.99,58.225l17.162-3.373l0.465-2.692h10.873l0.149,0.711c0,0,6.249-1.26,8.338-1.652
	c1.757-0.329,3.236-0.022,5.815,3.486l3.316,4.648L256.6,82.696H236.865z M242.67,122.048l1.625-9.364l1.123-7.236
	c0.024-0.129,0.076-0.503,0.153-1.122c0.078-0.619,0.206-1.728,0.388-3.328c0.103-0.799,0.199-1.534,0.289-2.205
	s0.162-1.277,0.213-1.819l0.504,5.649c0.129,1.161,0.232,2.123,0.31,2.883c0.077,0.761,0.142,1.361,0.192,1.8
	c0.49,3.921,0.762,6.165,0.813,6.732c0.077,0.671,0.13,1.02,0.154,1.045l1.045,6.965H242.67z"/>
<polygon fill="#FFFFFF" points="286.9,128.084 286.9,82.695 270.764,82.695 270.764,143.298 299.012,138.218 299.012,128.084 "/>
<path fill="#FFFFFF" d="M333.183,89.119c-4.438-4.282-10.642-6.423-18.612-6.423H300.64v55.249l36.722-6.179
	c3.039-4.996,4.566-11.378,4.566-19.158C341.928,102.546,339.012,94.717,333.183,89.119 M316.775,128.007V97.593h0.504
	c2.502,0,4.488,1.393,5.959,4.179c1.469,2.761,2.205,6.527,2.205,11.299C325.443,122.745,322.554,127.723,316.775,128.007"/>
<path fill="#FFFFFF" d="M354.777,82.696l-11.553,48.082l0.035-0.006c0.993-0.167,2.008-0.203,3.002-0.041
	c2.004,0.327,4.664,1.463,4.598,5.203v6.506h6.24l1.314-7.584h10.873l1.199,7.584h16.678l-12.652-59.745H354.777z M360.581,122.048
	l1.625-9.364l1.122-7.236c0.025-0.129,0.078-0.503,0.154-1.122c0.078-0.619,0.207-1.728,0.388-3.328
	c0.103-0.799,0.2-1.534,0.29-2.205s0.16-1.277,0.213-1.819l0.503,5.649c0.129,1.161,0.233,2.123,0.31,2.883
	c0.078,0.761,0.142,1.361,0.193,1.8c0.49,3.921,0.762,6.165,0.813,6.732c0.078,0.671,0.129,1.02,0.154,1.045l1.045,6.965H360.581z"
	/>
<path fill="#FFFFFF" d="M402.606,82.696h-13.931v59.745h15.091c8.332,0,14.601-2.297,18.806-6.889
	c4.928-5.391,7.391-13.04,7.391-22.945c0-10.061-2.916-17.89-8.745-23.488C416.781,84.837,410.576,82.696,402.606,82.696
	 M404.812,128.007V97.593h0.503c2.502,0,4.489,1.393,5.959,4.179c1.471,2.761,2.206,6.527,2.206,11.299
	C413.479,122.745,410.59,127.723,404.812,128.007"/>
</svg>
