<svg xmlns="http://www.w3.org/2000/svg" viewBox="0 0 59.31 55.75"><defs><style>.cls-1{fill:#fff;}.cls-2{fill:none;stroke:#fff;stroke-miterlimit:10;stroke-width:1.27px;}.cls-3{fill:#ffe900;}.cls-4{font-size:21.73px;fill:#003da6;font-family:Futura-CondensedExtraBold, Futura Condensed Extra;font-weight:800;letter-spacing:-0.04em;}</style></defs><title>Recurso 7</title><g id="Capa_2" data-name="Capa 2"><g id="Diseño"><rect class="cls-1" x="8.11" y="53.78" width="49.98" height="1.97" rx="0.99"/><path class="cls-2" d="M45.29,15.24l-5.13,6.19a1.87,1.87,0,0,0,.11,2.5h0a1.86,1.86,0,0,0,2.64,0l5.39-5.38,1.82-1.18a2.66,2.66,0,0,0,1.13-1.52l2.23-5.71L58.2,5.89,48.22.75l-15,10.79Z"/><path class="cls-1" d="M16.27,49.4,31.55,54h0l4.22.53h7.15L53.59,19.11a1.59,1.59,0,0,0-1.06-2l-1.65-.5a2.59,2.59,0,0,1-.76.75L48.3,18.56l-5.39,5.38a1.86,1.86,0,0,1-2.75-2.51l5.13-6.19-17-5.46a1.58,1.58,0,0,0-2,1.06L15.21,47.42A1.59,1.59,0,0,0,16.27,49.4ZM29.38,34.7a3.63,3.63,0,0,0,2.47,2.59c.87.21,1.4,0,1.57-.76a2,2,0,0,0-.55-1.63L32.2,34a7.8,7.8,0,0,1-1.42-2.58,4.89,4.89,0,0,1,0-2.52,5.54,5.54,0,0,1,4.92-4.47l.56-2.35,2.05.5-.54,2.22a8.54,8.54,0,0,1,2.49,1.48L39,31.39c-.64-1.42-1.41-2.24-2.31-2.45a1.24,1.24,0,0,0-.88.08.91.91,0,0,0-.5.63q-.14.55.75,1.65l.71.89a8.42,8.42,0,0,1,.84,1.23,6.34,6.34,0,0,1,.48,1.21,4.72,4.72,0,0,1,.14,1.24,5.69,5.69,0,0,1-.17,1.32,5.53,5.53,0,0,1-4.5,4.43L33,44.17l-2.07-.5.51-2.14a13.39,13.39,0,0,1-1.82-.65,7.15,7.15,0,0,1-.67-.38c-.25-.15-.52-.34-.81-.55Z"/><circle class="cls-3" cx="12.62" cy="27.67" r="12.62"/><text class="cls-4" transform="translate(5.78 35.77) scale(0.99 1)">5</text></g></g></svg>