<svg xmlns="http://www.w3.org/2000/svg" viewBox="0 0 63.4 56.09"><defs><style>.cls-1{fill:#fff;}.cls-2{fill:#ffe900;}.cls-3{font-size:21.73px;fill:#003da6;font-family:Futura-CondensedExtraBold, Futura Condensed Extra;font-weight:800;letter-spacing:-0.04em;}</style></defs><title>Recurso 5</title><g id="Capa_2" data-name="Capa 2"><g id="Diseño"><path class="cls-1" d="M35.9,1.64A25.86,25.86,0,1,1,10,27.5,25.86,25.86,0,0,1,35.9,1.64M35.9,0A27.5,27.5,0,0,0,16.45,46.94,27.5,27.5,0,1,0,55.34,8.05,27.32,27.32,0,0,0,35.9,0Z"/><path class="cls-1" d="M61.63,31.15a25.86,25.86,0,0,1-51.46,0H8.52A27.5,27.5,0,0,0,55.34,48a27.27,27.27,0,0,0,7.94-16.89Z"/><path class="cls-1" d="M45.52,33.36H35.66a1.09,1.09,0,0,1-1.09-1.09V12a1.1,1.1,0,0,1,2.19,0V31.17h8.76a1.1,1.1,0,1,1,0,2.19Z"/><circle class="cls-2" cx="12.62" cy="27.53" r="12.62"/><text class="cls-3" transform="translate(5.78 35.62) scale(0.99 1)">3</text></g></g></svg>