<svg xmlns="http://www.w3.org/2000/svg" viewBox="0 0 53.9 55.84"><defs><style>.cls-1{fill:#fff;}.cls-2{fill:#ffe900;}.cls-3{font-size:21.73px;fill:#003da6;font-family:Futura-CondensedExtraBold, Futura Condensed Extra;font-weight:800;letter-spacing:-0.04em;}</style></defs><title>Recurso 6</title><g id="Capa_2" data-name="Capa 2"><g id="Diseño"><rect class="cls-1" x="32.38" y="3.82" width="9.04" height="1.75" rx="0.88"/><path class="cls-1" d="M49.9,0h-26a4,4,0,0,0-4,4V51.84a4,4,0,0,0,4,4h26a4,4,0,0,0,4-4V4A4,4,0,0,0,49.9,0Zm2.78,48.79a2.78,2.78,0,0,1-2.78,2.78h-26a2.78,2.78,0,0,1-2.78-2.78V4a2.78,2.78,0,0,1,2.78-2.79h26A2.78,2.78,0,0,1,52.68,4Z"/><path class="cls-1" d="M40.65,45H33.14a1.55,1.55,0,1,0,0,3.09h7.51a1.55,1.55,0,1,0,0-3.09Z"/><path class="cls-1" d="M42.16,25.45a6.67,6.67,0,0,0-1-1.42,11.33,11.33,0,0,0-1.46-1.34l-1.21-.94C37.51,21,37,20.37,37,19.86a1.26,1.26,0,0,1,.44-1,1.7,1.7,0,0,1,1.13-.38c1.22,0,2.48.82,3.76,2.46V14a11.76,11.76,0,0,0-3.69-1.15v-3h-2.8V13a7.39,7.39,0,0,0-5,7.33,6.69,6.69,0,0,0,.79,3.26,10.52,10.52,0,0,0,2.64,2.9l1.15.92a2.69,2.69,0,0,1,1.22,1.94c0,1-.6,1.48-1.8,1.48q-2.31,0-4-2.58v7.19c.45.19.85.34,1.22.47a9.49,9.49,0,0,0,1,.27,15.59,15.59,0,0,0,2.56.27V39.4h2.84V35.91a7.36,7.36,0,0,0,4.44-7.14A7.54,7.54,0,0,0,42.73,27,6.07,6.07,0,0,0,42.16,25.45Z"/><circle class="cls-2" cx="12.62" cy="27.12" r="12.62"/><text class="cls-3" transform="translate(5.78 35.21) scale(0.99 1)">4</text></g></g></svg>