<svg xmlns="http://www.w3.org/2000/svg" viewBox="0 0 70.79 56.46"><defs><style>.cls-1{fill:#fff;}.cls-2{fill:#ffe900;}.cls-3{font-size:21.73px;fill:#003da6;font-family:Futura-CondensedExtraBold, Futura Condensed Extra;font-weight:800;letter-spacing:-0.04em;}</style></defs><title>Recurso 4</title><g id="Capa_2" data-name="Capa 2"><g id="Diseño"><path class="cls-1" d="M70.79,13.06s0-.08,0-.13a.61.61,0,0,0,0-.12.75.75,0,0,0-.07-.12.47.47,0,0,0-.1-.1s0-.05-.06-.06L56.76,3.13A21.06,21.06,0,0,0,51.53.89,23.24,23.24,0,0,0,46.15,0H32a23.32,23.32,0,0,0-5.38.89A21,21,0,0,0,21.4,3.13L7.66,12.53s0,0-.06.06l-.1.1a.75.75,0,0,0-.07.12l0,.12a.62.62,0,0,0,0,.13.33.33,0,0,0,0,.14.7.7,0,0,0,0,.14.32.32,0,0,0,0,.09L13.2,25h0a.24.24,0,0,0,.06.08.18.18,0,0,0,.05.07.27.27,0,0,0,.08.07s0,0,.07.05l.11.05.06,0a.58.58,0,0,0,.19,0l.16,0,0,0,.1,0h0l3.38-1.84h0l3.2-1.74V53.06a3.41,3.41,0,0,0,3.41,3.4H54a3.4,3.4,0,0,0,3.41-3.4V21.68l3.2,1.74h0L64,25.26h0l.1,0,0,0,.17,0a.57.57,0,0,0,.18,0l.06,0,.12-.05.06-.05a.27.27,0,0,0,.08-.07l.06-.07L65,25h0l5.76-11.53a.32.32,0,0,0,0-.09c0-.05,0-.09,0-.14ZM64,23.71,57,19.87h0l-.13,0a.7.7,0,0,0-.14,0h0l-.1,0-.14,0-.12.06-.11.08-.09.11s0,0-.06.07a0,0,0,0,0,0,0,.57.57,0,0,0,0,.14.61.61,0,0,0,0,.13s0,0,0,0v29.7a2.7,2.7,0,0,1-2.7,2.7H24.85a2.7,2.7,0,0,1-2.7-2.7V20.49s0,0,0,0a.59.59,0,0,0,0-.13c0-.05,0-.1-.05-.14a0,0,0,0,0,0,0s0,0-.06-.07a.48.48,0,0,0-.09-.11l-.11-.08-.12-.06-.14,0-.09,0h0l-.14,0-.13,0h0l-6.92,3.84L8.84,13l13.32-8.7A19.4,19.4,0,0,1,27,2.25a25.31,25.31,0,0,1,3.65-.73H47.51a25,25,0,0,1,3.65.73A19.63,19.63,0,0,1,56,4.32L69.31,13Z"/><circle class="cls-2" cx="12.62" cy="27.35" r="12.62"/><text class="cls-3" transform="translate(5.78 35.45) scale(0.99 1)">2</text></g></g></svg>