<svg xmlns="http://www.w3.org/2000/svg" viewBox="0 0 55.58 56.46"><defs><style>.cls-1{fill:#fff;}.cls-2{fill:#ffe900;}.cls-3{font-size:21.73px;fill:#003da6;font-family:Futura-CondensedExtraBold, Futura Condensed Extra;font-weight:800;letter-spacing:-0.04em;}</style></defs><title>Recurso 3</title><g id="Capa_2" data-name="Capa 2"><g id="Diseño"><path class="cls-1" d="M55.24,8.9,47.39.41a1.3,1.3,0,0,0-1-.41H14.57V52.14a4.33,4.33,0,0,0,4.32,4.32H51.26a4.33,4.33,0,0,0,4.32-4.32V9.78A1.29,1.29,0,0,0,55.24,8.9Zm-9-7.61,7.88,8.88h-8Zm8.09,49.56a3,3,0,0,1-3,3H18.89a3,3,0,0,1-3-3V1.29H44.91l-.14,8.86a1.29,1.29,0,0,0,.37.93,1.26,1.26,0,0,0,.92.38h8.23Z"/><circle class="cls-2" cx="12.62" cy="27.06" r="12.62"/><text class="cls-3" transform="translate(5.78 35.16) scale(0.99 1)">1</text></g></g></svg>